<?xml version="1.0" encoding="UTF-8"?>
<mxfile host="app.diagrams.net" modified="1-basic-producer-consumer" agent="PlantUML Converter" version="1.0" etag="plantuml-diagram" type="device">
  <diagram id="plantuml-1-basic-producer-consumer" name="1-basic-producer-consumer">
    <mxGraphModel dx="1422" dy="794" grid="1" gridSize="10" guides="1" tooltips="1" connect="1" arrows="1" fold="1" page="1" pageScale="1" pageWidth="827" pageHeight="1169" math="0" shadow="0">
      <root>
        <mxCell id="0" />
        <mxCell id="1" parent="0" />
        <mxCell id="plantuml-container" value="" style="shape=image;html=1;verticalAlign=top;verticalLabelPosition=bottom;labelBackgroundColor=#ffffff;imageAspect=0;aspect=fixed;image=data:image/svg+xml,PHN2ZyB4bWxucz0iaHR0cDovL3d3dy53My5vcmcvMjAwMC9zdmciIHdpZHRoPSI0MDAiIGhlaWdodD0iMzAwIiB2aWV3Qm94PSIwIDAgNDAwIDMwMCI+CiAgPHJlY3Qgd2lkdGg9IjQwMCIgaGVpZ2h0PSIzMDAiIGZpbGw9IiNmOGY5ZmEiIHN0cm9rZT0iI2RlZTJlNiIvPgogIDx0ZXh0IHg9IjIwMCIgeT0iMTUwIiB0ZXh0LWFuY2hvcj0ibWlkZGxlIiBmb250LWZhbWlseT0iQXJpYWwiIGZvbnQtc2l6ZT0iMTQiIGZpbGw9IiM2Yzc1N2QiPgogICAgRGlhZ3JhbWEgUGxhbnRVTUw6IDEtYmFzaWMtcHJvZHVjZXItY29uc3VtZXIKICA8L3RleHQ+CiAgPHRleHQgeD0iMjAwIiB5PSIxNzAiIHRleHQtYW5jaG9yPSJtaWRkbGUiIGZvbnQtZmFtaWx5PSJBcmlhbCIgZm9udC1zaXplPSIxMiIgZmlsbD0iIzZjNzU3ZCI+CiAgICAoU1ZHIG7Do28gZGlzcG9uw612ZWwgLSB1c2UgbyBjw7NkaWdvIFBsYW50VU1MIGluY29ycG9yYWRvKQogIDwvdGV4dD4KPC9zdmc+;plantuml=QHN0YXJ0dW1sCiFpbmNsdWRlIGh0dHBzOi8vcmF3LmdpdGh1YnVzZXJjb250ZW50LmNvbS9wbGFudHVtbC1zdGRsaWIvQzQtUGxhbnRVTUwvbWFzdGVyL0M0X0NvbnRhaW5lci5wdW1sCgp0aXRsZSBCYXNpYyBQcm9kdWNlci1Db25zdW1lciBQYXR0ZXJuCgohZGVmaW5lIFJFQ1RBTkdMRSBjbGFzcwoKUkVDVEFOR0xFIFByb2R1Y2VyIHsKICArIHByb2R1Y2VNZXNzYWdlKCkKICArIHNlbmRNZXNzYWdlKCkKfQoKUkVDVEFOR0xFIENvbnN1bWVyIHsKICArIHJlY2VpdmVNZXNzYWdlKCkKICArIHByb2Nlc3NNZXNzYWdlKCkKfQoKUHJvZHVjZXIgLS0+IENvbnN1bWVyIDogIkRpcmVjdCBNZXNzYWdlXG5bU3luY2hyb25vdXNdIgoKbm90ZSByaWdodCBvZiBQcm9kdWNlcgogIFNlbmRzIG1lc3NhZ2VzIGRpcmVjdGx5CiAgdG8gdGhlIGNvbnN1bWVyIHdpdGhvdXQKICBhbnkgaW50ZXJtZWRpYXJ5IGJyb2tlcgplbmQgbm90ZQoKbm90ZSBsZWZ0IG9mIENvbnN1bWVyCiAgUmVjZWl2ZXMgYW5kIHByb2Nlc3NlcwogIG1lc3NhZ2VzIGltbWVkaWF0ZWx5CiAgZnJvbSB0aGUgcHJvZHVjZXIKZW5kIG5vdGUKCkBlbmR1bWw=;" vertex="1" parent="1">
          <mxGeometry x="40" y="40" width="400" height="300" as="geometry" />
        </mxCell>
      </root>
    </mxGraphModel>
  </diagram>
</mxfile>